<svg version="1.1" id="layer" xmlns="http://www.w3.org/2000/svg" xmlns:xlink="http://www.w3.org/1999/xlink" x="0px" y="0px" viewBox="0 0 652 458" style="enable-background:new 0 0 652 458;" xml:space="preserve">
<style type="text/css">
	.st0{fill:#00234F;}
</style>
<path class="st0" d="M84.9,192.4c0.2,0,0.5,0.2,0.6,0.4c15.4,31.9,33.6,83.2,39.4,126.2c0,0.2,0,0.4-0.2,0.6
	c-0.1,0.2-0.3,0.2-0.5,0.2h-11.6c-0.3,0-0.6-0.2-0.6-0.5c-9-37.1-21.3-69.1-40-103.8c-0.1-0.2-0.1-0.5,0-0.7
	c3.8-7.5,7.9-15,12.3-22.1C84.4,192.5,84.7,192.4,84.9,192.4 M106.5,165.9c-0.2,0-0.5,0.1-0.6,0.3c-5.3,6.9-10.3,14.2-15.1,21.6
	c-0.1,0.2-0.1,0.5,0,0.7c15.6,31.5,32.6,71.6,40.7,130.8c0,0.3,0.3,0.6,0.7,0.6h11.4c0.2,0,0.4-0.1,0.5-0.2s0.2-0.3,0.2-0.5
	c-3.7-70.3-27.3-130.4-37.3-152.9C107,166,106.7,165.9,106.5,165.9 M67.1,220.3c-0.1-0.2-0.3-0.4-0.6-0.4c-0.2,0-0.5,0.2-0.6,0.4
	c-1.4,3-2.8,6-4.2,9.1c-1.9,4.3-3.7,8.7-5.4,13c-0.1,0.2-0.1,0.5,0,0.7c14.1,24.2,26,49.9,35.2,76.3c0.1,0.3,0.3,0.5,0.6,0.5h12.4
	c0.2,0,0.4-0.1,0.5-0.3c0.1-0.2,0.2-0.4,0.1-0.6C96.8,285.8,83.6,251.7,67.1,220.3 M160.5,251.4L160.5,251.4
	c-4.5-36.8-13.8-72.8-28.5-110c-0.1-0.2-0.3-0.4-0.5-0.4s-0.4,0-0.6,0.2c-6,6.1-13.4,13.9-18.1,20.5c-0.2,0.2-0.2,0.5-0.1,0.8
	c0.4,0.7,35.7,72.5,38.3,156.7c0,0.4,0.3,0.7,0.7,0.7H163c0.4,0,0.7-0.3,0.7-0.7C164.1,298.3,162.7,269.8,160.5,251.4 M51.8,248.4
	c-0.1-0.2-0.4-0.4-0.6-0.3c-0.3,0-0.5,0.2-0.6,0.4c-2.6,7.2-5,14.5-7,21.8c-0.1,0.2,0,0.4,0.1,0.6c9.7,15.5,18.6,31.9,26.4,48.6
	c0.1,0.2,0.3,0.4,0.6,0.4h12.8c0.2,0,0.4-0.1,0.6-0.3c0.1-0.2,0.2-0.4,0.1-0.7C75.4,294.5,64.5,270.8,51.8,248.4 M35.8,311.1
	c-1.7-2.5-3.3-4.9-4.9-7.3c-0.2-0.2-0.4-0.3-0.7-0.3c-0.3,0.1-0.5,0.3-0.5,0.6c-0.3,2.3-1.5,11-1.9,15.1c0,0.2,0,0.4,0.2,0.5
	c0.1,0.1,0.3,0.2,0.5,0.2h11.9c0.2,0,0.5-0.1,0.6-0.4c0.1-0.2,0.1-0.5,0-0.7C39.2,316.1,37.5,313.6,35.8,311.1 M39.5,276.6
	c-0.1-0.2-0.4-0.4-0.7-0.3c-0.3,0-0.5,0.2-0.5,0.5c-1.8,7.2-3.3,14.3-4.5,21.4c0,0.2,0,0.4,0.1,0.5c4.7,6.9,9.2,13.8,13.6,20.8
	c0.1,0.2,0.3,0.3,0.6,0.3h13.6c0.2,0,0.4-0.1,0.6-0.3c0.1-0.2,0.1-0.5,0-0.7C55.5,304.4,47.8,290.2,39.5,276.6" data-index="0" style="visibility: visible;"></path>
<path class="st0" d="M219.6,252.5c-10.1,0-17.7-6.9-17.7-17.1v-32.8h7.5V235c0,6.6,4,10.7,10.2,10.7c6.2,0,10.3-4.1,10.3-10.7v-32.5
	h7.5v32.8C237.4,245.6,229.7,252.5,219.6,252.5 M285.2,252.1v-49.5h-7.5v34.8l-22.9-34.8h-6.9v49.5h7.5v-34.9l22.9,34.9L285.2,252.1
	L285.2,252.1z M296.2,252.1h7.5v-49.5h-7.5V252.1z M348.7,202.6h-7.9l-11.4,36l-11.4-36h-7.8l16.3,49.5h5.8L348.7,202.6z
	 M386.9,252.1v-6.7h-24.1v-14.9h20.6v-6.7h-20.6v-14.5h24.1v-6.7h-31.6v49.5L386.9,252.1L386.9,252.1z M431.3,252.1l-11.4-21.9
	c5.6-1.5,9.9-6.1,9.9-13.1c0-8.4-6-14.5-15.4-14.5h-19.2v49.5h7.5v-20.9h9.4l10.4,20.9H431.3z M413.8,209.3c5,0,8.4,2.9,8.4,7.8
	s-3.4,7.7-8.4,7.7h-11.1v-15.5H413.8 M453.3,252.5c10.4,0,17.8-5.4,17.8-14.5c0-4.2-1.3-7.8-4-10.2c-2.1-1.9-4.7-3-9.2-3.7l-5.6-0.8
	c-2.3-0.3-4.3-1.2-5.6-2.3c-1.3-1.2-1.9-2.8-1.9-4.6c0-4.4,3.2-7.7,9-7.7c4.2,0,7.7,0.9,10.8,3.8l4.8-4.7c-4.2-4-8.8-5.6-15.4-5.6
	c-10.3,0-16.6,5.9-16.6,14.5c0,4,1.2,7.2,3.6,9.5c2.2,2,5.4,3.4,9.4,4l5.8,0.8c2.9,0.4,4.2,0.9,5.4,2.1c1.3,1.2,1.9,3,1.9,5.1
	c0,4.8-3.8,7.6-10.2,7.6c-5.1,0-9-1.1-12.7-4.7l-5,4.9C440.5,250.8,445.8,252.5,453.3,252.5 M479.2,252.1h7.5v-49.5h-7.5V252.1z
	 M528.8,209.3v-6.7H494v6.7h13.6v42.8h7.5v-42.8H528.8z M536.3,252.1h7.5v-49.5h-7.5V252.1z M586.3,252.1v-6.7h-24.1v-14.9h20.6
	v-6.7h-20.6v-14.5h24.1v-6.7h-31.6v49.5L586.3,252.1L586.3,252.1z M610,252.5c10.4,0,17.8-5.4,17.8-14.5c0-4.2-1.3-7.8-4-10.2
	c-2.1-1.9-4.7-3-9.2-3.7l-5.6-0.8c-2.3-0.3-4.3-1.2-5.6-2.3c-1.3-1.2-1.9-2.8-1.9-4.6c0-4.4,3.2-7.7,9-7.7c4.2,0,7.7,0.9,10.8,3.8
	l4.8-4.7c-4.2-4-8.8-5.6-15.4-5.6c-10.3,0-16.6,5.9-16.6,14.5c0,4,1.2,7.2,3.6,9.5c2.2,2,5.4,3.4,9.4,4l5.8,0.8
	c2.9,0.4,4.2,0.9,5.4,2.1c1.3,1.2,1.9,3,1.9,5.1c0,4.8-3.8,7.6-10.2,7.6c-5.1,0-9-1.1-12.7-4.7l-5,4.9
	C597.2,250.8,602.5,252.5,610,252.5 M218.8,270l18.2,49.5h-4l-4.3-12h-23.2l-4.3,12h-4l18.2-49.5H218.8z M206.7,304.2h20.7
	L217.1,275L206.7,304.2z M260,320c9.9,0,17-6.8,17-16.5V270h-3.8v33c0,8.2-5.3,13.6-13.2,13.6s-13.2-5.4-13.2-13.6v-33H243v33.5
	C243,313.2,250.1,320,260,320 M302.4,320c10.3,0,16.7-5.4,16.7-13.7c0-4-1.6-7.4-4.3-9.6c-2.1-1.7-4.2-2.6-8.8-3.3l-5.4-0.8
	c-2.8-0.4-5.6-1.6-7.4-3.1c-1.7-1.5-2.6-3.6-2.6-6.5c0-6.3,4.3-10.2,11.5-10.2c5.9,0,9,1.9,12,4.6l2.4-2.4
	c-4.2-3.7-8.1-5.4-14.3-5.4c-9.5,0-15.4,5.3-15.4,13.6c0,3.8,1.2,6.9,3.9,9.1c2.1,1.8,5.1,3.1,8.8,3.6l5.8,0.9
	c4,0.6,5.4,1.1,7.2,2.6c1.8,1.6,2.7,4,2.7,7c0,6.5-4.9,10.2-12.7,10.2c-6,0-9.6-1.4-14.1-5.8l-2.6,2.6C290.4,318,295,320,302.4,320
	 M325,270v3.3h14.7v46.2h3.8v-46.2h14.8V270H325z M401,319.6l-12-22.9c7-1.2,11.4-6,11.4-13.4c0-8.6-6.1-13.3-14.2-13.3h-18.8v49.5
	h3.8v-22.8h13.6l11.8,22.8L401,319.6L401,319.6z M385.8,273.4c6.3,0,10.9,3.2,10.9,10s-4.6,10-10.9,10h-14.6v-20H385.8 M429.6,270
	l18.2,49.5h-4l-4.3-12h-23.1l-4.3,12h-4l18.2-49.5H429.6z M417.6,304.2h20.7L428,275L417.6,304.2z M456.5,270v49.5h30v-3.3h-26.3
	V270H456.5z M495.6,319.5h3.8V270h-3.8V319.5z M529.4,270l18.2,49.5h-4l-4.3-12h-23.1l-4.3,12h-4l18.2-49.5H529.4z M517.4,304.2
	h20.7L527.8,275L517.4,304.2z" data-index="1" style="visibility: visible;"></path>
</svg>