<svg width="54" height="56" viewBox="0 0 54 56" fill="none" xmlns="http://www.w3.org/2000/svg">
<path d="M26.944 0.5C41.4467 0.500102 53.2408 12.7913 53.2408 28C53.2408 43.2087 41.4467 55.4999 26.944 55.5C12.4412 55.5 0.647095 43.2088 0.647095 28C0.647095 12.7912 12.4412 0.5 26.944 0.5Z" fill="white" stroke="#E1C5ED"/>
<rect x="14.6943" y="15.815" width="27.37" height="27.37" stroke="#E1C5ED"/>
<path d="M37.836 35.4105C38.463 35.4105 39.0644 35.1614 39.5077 34.718C39.9511 34.2746 40.2002 33.6733 40.2002 33.0463V20.0434C40.2002 19.4164 39.9511 18.815 39.5077 18.3716C39.0644 17.9283 38.463 17.6792 37.836 17.6792H25.3769C25.7906 18.4003 26.0152 19.2159 26.0152 20.0434H37.836V33.0463H27.1973V35.4105M31.9256 23.5896V25.9538H24.8331V41.3209H22.4689V34.2284H20.1048V41.3209H17.7406V31.8642H15.9675V25.9538C15.9675 25.3268 16.2165 24.7254 16.6599 24.2821C17.1033 23.8387 17.7046 23.5896 18.3316 23.5896H31.9256ZM23.651 20.0434C23.651 20.6704 23.4019 21.2717 22.9586 21.7151C22.5152 22.1585 21.9139 22.4075 21.2868 22.4075C20.6598 22.4075 20.0585 22.1585 19.6151 21.7151C19.1718 21.2717 18.9227 20.6704 18.9227 20.0434C18.9227 19.4164 19.1718 18.815 19.6151 18.3716C20.0585 17.9283 20.6598 17.6792 21.2868 17.6792C21.9139 17.6792 22.5152 17.9283 22.9586 18.3716C23.4019 18.815 23.651 19.4164 23.651 20.0434Z" fill="#C837AB"/>
</svg>
